# xmcd
#
# Track frame offsets:
#	150
#	10300
#	20713
#	37221
#	51004
#	61841
#	72855
#	94835
#	109041
#	121070
#	142189
#	153953
#	167479
#	181744
#	196627
#	206139
#	216383
#	226672
#
# Disc length: 3148 seconds
#
# Revision: 0
# Processed by: cddbd v1.5.1PL0 Copyright (c) Steve Scherf et al.
# Submitted via: EasyCDDAExtractor 7.5.2.1
#
DISCID=f50c4a12
DTITLE=The Everly Brothers - World Pop Songs
DYEAR=1995
DGENRE=Country
TTITLE0=Rip It Up
TTITLE1=Be Bop A Lula
TTITLE2=Roving Gambler
TTITLE3=Down In The Willow Garden
TTITLE4=Long Time Gone
TTITLE5=Take A Message To Mary
TTITLE6=Lighting Express
TTITLE7=That Silver Haired Daddy Of Mine
TTITLE8=Who's Gonna Shoe Your Pretty Little Feet
TTITLE9=Barbra Allen
TTITLE10=Oh So Many Years
TTITLE11=Rockin' Alone
TTITLE12=Kentucky Rovin'
TTITLE13=Put My Little Shoes Away
TTITLE14=Maybe Tomorrow
TTITLE15=Brand New Heartache
TTITLE16=Keep On Knockin'
TTITLE17=Hey Doll Baby
EXTD=
EXTT0=
EXTT1=
EXTT2=
EXTT3=
EXTT4=
EXTT5=
EXTT6=
EXTT7=
EXTT8=
EXTT9=
EXTT10=
EXTT11=
EXTT12=
EXTT13=
EXTT14=
EXTT15=
EXTT16=
EXTT17=
PLAYORDER=
